<?xml version="1.0" encoding="UTF-8"?>
<!DOCTYPE svg PUBLIC "-//W3C//DTD SVG 1.1//EN" "http://www.w3.org/Graphics/SVG/1.1/DTD/svg11.dtd">
<svg xmlns="http://www.w3.org/2000/svg" version="1.1" width="471px" height="377px" style="shape-rendering:geometricPrecision; text-rendering:geometricPrecision; image-rendering:optimizeQuality; fill-rule:evenodd; clip-rule:evenodd" xmlns:xlink="http://www.w3.org/1999/xlink">
<g><path style="opacity:0.943" fill="#f31c1b" d="M 470.5,375.5 C 470.5,375.833 470.5,376.167 470.5,376.5C 454.833,376.5 439.167,376.5 423.5,376.5C 427.619,375.262 431.953,374.429 436.5,374C 444.833,373.667 453.167,373.333 461.5,373C 459.648,365.791 456.815,358.958 453,352.5C 447.053,343.553 440.72,334.886 434,326.5C 432.119,333.787 430.452,341.12 429,348.5C 424.095,357.38 420.261,366.713 417.5,376.5C 405.5,376.5 393.5,376.5 381.5,376.5C 380.301,371.761 378.801,367.095 377,362.5C 376.574,357.66 376.74,352.827 377.5,348C 377.418,344.765 376.918,341.598 376,338.5C 369.842,323.524 363.176,308.857 356,294.5C 347.758,278.344 338.758,262.677 329,247.5C 321.968,240.803 315.302,233.803 309,226.5C 308.333,223.833 308.333,221.167 309,218.5C 310.821,215.047 311.988,211.713 312.5,208.5C 311.56,205.868 311.393,203.202 312,200.5C 312.718,199.549 313.551,199.383 314.5,200C 315.965,203.046 317.799,205.879 320,208.5C 326.463,194.836 328.296,180.503 325.5,165.5C 326.79,155.662 327.124,145.829 326.5,136C 327.699,129.204 329.366,122.537 331.5,116C 328.788,108.759 329.121,101.759 332.5,95C 317.065,93.3074 301.731,90.9741 286.5,88C 263.665,85.2011 240.831,83.3677 218,82.5C 203.454,83.9419 188.954,84.9419 174.5,85.5C 172.571,85.4604 170.738,85.1271 169,84.5C 168.25,85.1258 167.416,85.6258 166.5,86C 169.35,87.1711 172.184,88.3377 175,89.5C 179.049,102.263 185.216,113.93 193.5,124.5C 197.263,126.557 201.263,128.057 205.5,129C 206.701,129.903 207.535,131.069 208,132.5C 206.787,148.027 205.787,163.694 205,179.5C 211.689,185.182 216.355,192.182 219,200.5C 224.411,206.984 229.078,213.984 233,221.5C 239.667,230.167 246.333,238.833 253,247.5C 253.665,252.181 252.665,256.514 250,260.5C 249.064,264.114 248.564,267.78 248.5,271.5C 253.064,270.526 257.564,270.526 262,271.5C 270.687,305.789 277.187,340.789 281.5,376.5C 266.5,376.5 251.5,376.5 236.5,376.5C 235.589,372.343 233.422,369.009 230,366.5C 226.726,359.971 222.393,354.304 217,349.5C 214.427,345.358 212.094,341.024 210,336.5C 204.667,329.833 199.333,323.167 194,316.5C 191.383,313.231 189.717,309.565 189,305.5C 185.667,302.167 182.333,298.833 179,295.5C 176.081,313.665 174.748,331.998 175,350.5C 174,351.833 173,351.833 172,350.5C 171.788,333.292 172.621,316.125 174.5,299C 174.038,296.46 174.038,294.127 174.5,292C 173.833,291 173.167,290 172.5,289C 174.121,286.834 174.955,284.334 175,281.5C 175.43,270.795 175.763,260.128 176,249.5C 173.167,250.87 170.5,250.536 168,248.5C 167.048,237.518 166.382,226.518 166,215.5C 165.378,211.388 164.378,207.388 163,203.5C 160.957,205.712 158.791,207.712 156.5,209.5C 159.577,212.686 161.244,216.519 161.5,221C 161.518,234.278 156.518,245.278 146.5,254C 131.596,262.37 118.763,273.204 108,286.5C 103.698,292.143 99.3644,297.809 95,303.5C 89.3241,308.01 84.1575,313.01 79.5,318.5C 86.0956,325.597 92.9289,332.597 100,339.5C 102.729,343.388 105.229,347.388 107.5,351.5C 115.048,360.07 122.715,368.403 130.5,376.5C 128.833,376.5 127.167,376.5 125.5,376.5C 118.533,369.364 111.7,362.03 105,354.5C 102.73,349.902 100.063,345.569 97,341.5C 90.9559,335.279 84.7892,329.113 78.5,323C 76.017,321.674 73.517,320.507 71,319.5C 65.2395,321.585 59.4062,323.418 53.5,325C 45.4717,325.228 37.4717,325.728 29.5,326.5C 28.5581,326.392 27.7247,326.059 27,325.5C 19.8202,341.885 14.6535,358.885 11.5,376.5C 7.5,376.5 3.5,376.5 -0.5,376.5C -0.5,376.167 -0.5,375.833 -0.5,375.5C 1.92397,375.808 4.25731,375.474 6.5,374.5C 10.7811,351.704 18.2811,330.037 29,309.5C 33.3333,303.833 37.6667,298.167 42,292.5C 64.3807,271.109 88.214,251.609 113.5,234C 115.438,226.728 120.105,222.062 127.5,220C 129.35,216.638 131.683,213.638 134.5,211C 138.737,209.681 143.071,208.681 147.5,208C 152.703,205.23 157.37,201.73 161.5,197.5C 161.603,183.871 162.27,170.204 163.5,156.5C 163.43,155.228 163.097,154.062 162.5,153C 164.129,149.573 165.629,146.073 167,142.5C 173.023,135.976 179.523,129.976 186.5,124.5C 180.828,115.826 175.661,106.826 171,97.5C 170.506,95.8659 170.34,94.1992 170.5,92.5C 166.634,92.0458 163.134,90.7125 160,88.5C 159.333,86.8333 159.333,85.1667 160,83.5C 166.991,80.2795 174.158,77.4462 181.5,75C 188.971,73.6071 196.305,71.7737 203.5,69.5C 207.1,55.004 210.267,40.3373 213,25.5C 217.19,21.6487 221.69,18.1487 226.5,15C 234.943,9.78071 243.61,5.11404 252.5,1C 263.167,0.333333 273.833,0.333333 284.5,1C 288.153,2.27344 291.819,3.44011 295.5,4.5C 300.961,2.21741 306.628,1.38407 312.5,2C 319.468,5.55311 325.301,10.3864 330,16.5C 330.351,24.8495 330.351,33.1828 330,41.5C 332.812,50.7458 335.312,60.0792 337.5,69.5C 342.82,70.7126 348.154,71.8793 353.5,73C 363.814,78.2167 374.314,83.05 385,87.5C 386.236,91.4633 385.07,94.2966 381.5,96C 366.126,100.841 350.459,104.341 334.5,106.5C 335.084,109.67 335.75,112.837 336.5,116C 335.387,121.619 333.887,127.119 332,132.5C 331.648,140.177 331.148,147.844 330.5,155.5C 330.833,157.167 331.167,158.833 331.5,160.5C 349.536,175.703 365.703,192.703 380,211.5C 389.83,225.156 399.163,239.156 408,253.5C 408.497,256.146 408.664,258.813 408.5,261.5C 399.11,260.825 389.776,259.991 380.5,259C 391.167,268.333 401.167,278.333 410.5,289C 420.657,293.911 430.657,299.078 440.5,304.5C 441.046,305.772 441.379,307.106 441.5,308.5C 440.112,313.468 439.279,318.468 439,323.5C 447.91,334.311 455.576,345.977 462,358.5C 463.974,364.062 465.474,369.729 466.5,375.5C 467.833,375.5 469.167,375.5 470.5,375.5 Z M 273.5,48.5 C 291.863,47.6008 309.863,49.6008 327.5,54.5C 328.659,59.4678 329.659,64.4678 330.5,69.5C 307.09,66.2282 283.757,65.2282 260.5,66.5C 260.334,61.4889 260.501,56.4889 261,51.5C 265.203,50.2151 269.37,49.2151 273.5,48.5 Z M 254.5,50.5 C 256.45,55.7351 257.117,61.4018 256.5,67.5C 244.923,67.054 233.423,67.7207 222,69.5C 217.808,68.9974 213.641,68.3307 209.5,67.5C 210.309,65.9291 210.643,64.2624 210.5,62.5C 225.282,58.6802 239.948,54.6802 254.5,50.5 Z M 132.5,222.5 C 135.601,222.692 138.601,223.358 141.5,224.5C 142.614,225.723 142.781,227.056 142,228.5C 135.968,230.393 130.468,233.226 125.5,237C 122.404,237.927 120.07,236.927 118.5,234C 119.126,233.25 119.626,232.416 120,231.5C 123.969,228.111 128.136,225.111 132.5,222.5 Z M 207.5,245.5 C 210.518,245.335 213.518,245.502 216.5,246C 220.725,252.285 224.558,258.785 228,265.5C 229.44,264.07 229.774,262.403 229,260.5C 226.352,255.555 223.519,250.722 220.5,246C 226.833,245.333 233.167,245.333 239.5,246C 242.672,248.419 246.006,250.586 249.5,252.5C 246.345,258.435 244.512,264.769 244,271.5C 227.518,273.217 211.684,277.383 196.5,284C 189.661,285.049 182.994,286.382 176.5,288C 177,287.5 177.5,287 178,286.5C 178.192,274.468 178.858,262.468 180,250.5C 181.491,248.996 183.324,248.163 185.5,248C 193.077,247.965 200.41,247.131 207.5,245.5 Z M 397.5,284.5 C 390.385,281.851 383.719,278.351 377.5,274C 370.819,273.016 363.819,272.349 356.5,272C 361.633,267.387 365.3,261.887 367.5,255.5C 368.552,255.351 369.552,255.517 370.5,256C 379.97,265.065 388.97,274.565 397.5,284.5 Z"/></g>
</svg>
